<?xml version="1.0" encoding="UTF-8" standalone="no"?>
<!-- Created with Inkscape (http://www.inkscape.org/) -->

<svg
   width="640mm"
   height="480mm"
   viewBox="0 0 640 480"
   version="1.1"
   id="svg55100"
   inkscape:version="1.2 (1:1.2+202206011327+fc4e4096c5)"
   sodipodi:docname="circle.svg"
   xml:space="preserve"
   xmlns:inkscape="http://www.inkscape.org/namespaces/inkscape"
   xmlns:sodipodi="http://sodipodi.sourceforge.net/DTD/sodipodi-0.dtd"
   xmlns="http://www.w3.org/2000/svg"
   xmlns:svg="http://www.w3.org/2000/svg"><sodipodi:namedview
     id="namedview55102"
     pagecolor="#ffffff"
     bordercolor="#000000"
     borderopacity="0.25"
     inkscape:showpageshadow="2"
     inkscape:pageopacity="0.0"
     inkscape:pagecheckerboard="0"
     inkscape:deskcolor="#d1d1d1"
     inkscape:document-units="mm"
     showgrid="false"
     inkscape:zoom="0.44813802"
     inkscape:cx="996.34483"
     inkscape:cy="929.40117"
     inkscape:window-width="1920"
     inkscape:window-height="1016"
     inkscape:window-x="0"
     inkscape:window-y="27"
     inkscape:window-maximized="1"
     inkscape:current-layer="layer1" /><defs
     id="defs55097" /><g
     inkscape:label="Layer 1"
     inkscape:groupmode="layer"
     id="layer1"><g
       id="g77966"
       transform="matrix(0.81649182,0,0,0.81632653,111.01859,31.020408)"
       style="fill:#36ad95;fill-opacity:1;stroke-width:0;stroke-dasharray:none"><path
         d="m 119.1,294.6 h 9.1 v 21.1 c 0,11.3 9.1,20.4 20.4,20.4 11.3,0 20.4,-9.1 20.4,-20.3 v -21.1 h 9.1 c 11.3,0 20.4,-9.1 20.4,-20.4 0,-11.3 -9.1,-20.4 -20.4,-20.4 H 169 V 114.4 C 169,103.1 159.9,94 148.6,94 c -11.3,0 -20.4,9.1 -20.4,20.4 v 139.4 h -9.1 c -11.3,0 -20.4,9.1 -20.4,20.4 0,11.3 9.1,20.4 20.4,20.4 z"
         id="path77958"
         style="fill:#36ad95;fill-opacity:1;stroke-width:0;stroke-dasharray:none" /><path
         d="m 226.5,186.6 h 9.1 v 129.1 c 0,11.3 9.1,20.4 20.4,20.4 11.3,0 20.4,-9.1 20.4,-20.4 V 186.6 h 9.1 c 11.3,0 20.4,-9.1 20.4,-20.4 0,-11.3 -9.1,-20.4 -20.4,-20.4 h -9.1 V 114.4 C 276.4,103.1 267.3,94 256,94 c -11.3,0 -20.4,9.1 -20.4,20.4 v 31.4 h -9.1 c -11.3,0 -20.4,9.1 -20.4,20.4 0,11.3 9.1,20.4 20.4,20.4 z"
         id="path77960"
         style="fill:#36ad95;fill-opacity:1;stroke-width:0;stroke-dasharray:none" /><path
         d="m 333.9,245.5 h 9.1 v 70.3 c 0,11.3 9.1,20.4 20.4,20.4 11.3,0 20.4,-9.1 20.4,-20.4 v -70.3 h 9.1 c 11.3,0 20.4,-9.1 20.4,-20.4 0,-11.3 -9.1,-20.4 -20.4,-20.4 h -9.1 v -90.2 c 0,-11.3 -9.1,-20.4 -20.4,-20.4 -11.3,0 -20.4,9.1 -20.4,20.4 v 90.2 h -9.1 c -11.3,0 -20.4,9.1 -20.4,20.4 0,11.3 9.1,20.4 20.4,20.4 z"
         id="path77962"
         style="fill:#36ad95;fill-opacity:1;stroke-width:0;stroke-dasharray:none" /><path
         d="M 480.6,11 H 31.4 C 20.2,11 11,20.1 11,31.4 v 367.4 c 0,11.3 9.1,20.4 20.4,20.4 h 204.1 v 41 h -74 c -11.3,0 -20.4,9.1 -20.4,20.4 0,11.3 9.1,20.4 20.4,20.4 h 188.9 c 11.3,0 20.4,-9.1 20.4,-20.4 0,-11.3 -9.1,-20.4 -20.4,-20.4 h -74 v -41 h 204.1 c 11.3,0 20.4,-9.1 20.4,-20.4 V 31.4 C 501,20.1 491.8,11 480.6,11 Z M 460.1,378.4 H 51.9 V 51.8 h 408.3 v 326.6 z"
         id="path77964"
         style="fill:#36ad95;fill-opacity:1;stroke-width:0;stroke-dasharray:none" /></g></g></svg>
